<?xml version="1.0" encoding="UTF-8"?>
<svg xmlns="http://www.w3.org/2000/svg" xmlns:xlink="http://www.w3.org/1999/xlink" viewBox="0 0 256 256" width="256px" height="256px">
<g id="surface10402709">
<rect x="0" y="0" width="256" height="256" style="fill:rgb(80.000001%,80.000001%,80.000001%);fill-opacity:1;stroke:none;"/>
<path style=" stroke:none;fill-rule:nonzero;fill:rgb(0%,0%,0%);fill-opacity:1;" d="M 28.761719 128 C 28.761719 73.199219 73.199219 28.761719 128 28.761719 C 182.800781 28.761719 227.238281 73.199219 227.238281 128 C 227.238281 182.800781 182.800781 227.238281 128 227.238281 C 73.199219 227.238281 28.761719 182.800781 28.761719 128 Z M 28.761719 128 "/>
<path style=" stroke:none;fill-rule:nonzero;fill:rgb(100%,100%,100%);fill-opacity:1;" d="M 188.839844 108.320312 L 128.800781 78.359375 C 128.28125 78.121094 127.71875 78.121094 127.199219 78.359375 L 67.121094 108.320312 C 66.441406 108.640625 66.039062 109.28125 66.039062 110.039062 L 66.039062 121.878906 C 66.039062 122.519531 66.359375 123.121094 66.921875 123.480469 C 67.480469 123.839844 68.160156 123.878906 68.71875 123.601562 L 128 94 L 187.238281 123.601562 C 187.480469 123.71875 187.761719 123.800781 188.039062 123.800781 C 188.398438 123.800781 188.761719 123.71875 189.039062 123.519531 C 189.601562 123.160156 189.921875 122.558594 189.921875 121.921875 L 189.921875 110 C 189.921875 109.28125 189.519531 108.601562 188.839844 108.320312 Z M 188.839844 108.320312 "/>
<path style=" stroke:none;fill-rule:nonzero;fill:rgb(100%,100%,100%);fill-opacity:1;" d="M 177.800781 123.921875 L 128 99.121094 L 78.199219 123.921875 L 78.199219 169.921875 L 105.800781 169.921875 L 105.800781 134.640625 L 124.800781 134.640625 L 124.800781 169.921875 L 177.800781 169.921875 Z M 177.800781 123.921875 "/>
<path style=" stroke:none;fill-rule:nonzero;fill:rgb(0%,0%,0%);fill-opacity:1;" d="M 131.078125 134.640625 L 143.878906 134.640625 L 143.878906 147.441406 L 131.078125 147.441406 Z M 131.078125 134.640625 "/>
</g>
</svg>
